LG_Stand_to_Walk01																		
version=1																		
nRows=30																		
nColumns=19																		
inDegrees=yes																		
endheader																		
time	ground_force2_vx	ground_force2_vy	ground_force2_vz	ground_force2_px	ground_force2_py	ground_force2_pz	ground_torque2_x	ground_torque2_y	ground_torque2_z	ground_force1_vx	ground_force1_vy	ground_force1_vz	ground_force1_px	ground_force1_py	ground_force1_pz	ground_torque1_x	ground_torque1_y	ground_torque1_z
4.35	-45.462284	694.386963	104.832489	0.191446	0	-0.258757	0	1.950124	6.00E-06	6.36455	132.644867	3.998383	-0.130842	0	0.182923	-1.00E-06	-0.177141	-1.00E-06
4.351	-45.462284	694.026733	104.832489	0.191217	0	-0.258389	1.30E-05	1.950124	6.00E-06	6.060362	140.159927	2.979563	-0.130842	0	0.194723	-1.00E-06	-0.101251	-2.00E-06
4.352	-47.102928	690.253235	106.713181	0.191265	0	-0.257207	1.50E-05	1.884716	8.00E-06	5.74535	140.159927	2.430927	-0.13244	0	0.194723	-2.00E-06	-0.068286	-2.00E-06
4.353	-47.102928	690.253235	106.791718	0.191265	0	-0.257207	1.50E-05	1.747656	5.00E-06	5.90466	140.159927	2.274185	-0.133394	0	0.194094	-2.00E-06	-0.098019	-2.00E-06
4.354	-47.025799	689.922668	107.105118	0.191654	0	-0.256384	1.40E-05	1.747656	8.00E-06	5.750401	142.230499	2.195776	-0.133394	0	0.194094	-2.00E-06	-0.079894	-1.00E-06
4.355	-45.462284	689.749146	107.105118	0.191899	0	-0.255599	1.30E-05	1.830458	1.00E-05	5.90466	142.230499	1.882172	-0.132876	0	0.194094	-1.00E-06	-0.098019	-1.00E-06
4.356	-45.384434	689.246216	107.026947	0.191878	0	-0.255597	1.30E-05	1.830458	1.00E-05	5.902495	142.230499	1.568888	-0.131574	0	0.194681	-1.00E-06	-0.155392	-1.00E-06
4.357	-45.384434	688.032288	107.026947	0.191878	0	-0.255242	1.30E-05	1.784706	1.00E-05	5.981068	141.893784	1.020575	-0.131045	0	0.193352	-1.00E-06	-0.155392	-2.00E-06
4.358	-45.625923	688.032288	108.123856	0.19179	0	-0.254716	1.40E-05	1.784706	2.00E-06	5.902495	140.367493	0.31568	-0.130579	0	0.18658	0	-0.086933	-1.00E-06
4.359	-45.625923	688.039307	108.123856	0.191676	0	-0.254716	1.80E-05	1.804298	6.00E-06	4.728236	140.367493	0.31568	-0.130579	0	0.182761	-1.00E-06	0.042083	-1.00E-06
4.36	-44.603039	688.219788	107.888824	0.19179	0	-0.254469	1.80E-05	1.804298	2.00E-06	4.728236	140.217072	0.394173	-0.130579	0	0.181893	-1.00E-06	0.042083	-1.00E-06
4.361	-44.37093	688.219788	107.888824	0.191936	0	-0.25422	1.00E-06	1.803548	6.00E-06	5.90033	139.88382	1.1778	-0.128068	0	0.180275	-2.00E-06	-0.162678	-1.00E-06
4.362	-44.135212	688.219788	107.889267	0.191936	0	-0.253744	1.00E-06	1.803548	7.00E-06	6.448895	139.88382	1.804402	-0.128068	0	0.180275	-2.00E-06	-0.192092	-1.00E-06
4.363	-43.905266	687.702942	108.672729	0.191941	0	-0.25341	1.00E-05	1.803548	7.00E-06	5.90033	143.327179	2.43129	-0.128514	0	0.182348	-3.00E-06	-0.192092	-1.00E-06
4.364	-43.432388	684.604065	108.359528	0.191995	0	-0.252877	1.00E-05	1.774047	7.00E-06	6.218949	144.186981	2.587708	-0.129356	0	0.182348	-2.00E-06	-0.192092	-1.00E-06
4.365	-43.124588	683.574585	108.594528	0.191995	0	-0.252564	1.00E-05	1.774047	7.00E-06	6.218949	147.976379	3.292442	-0.129433	0	0.182348	-1.00E-06	-0.201839	0
4.366	-42.419601	682.366455	108.594528	0.191816	0	-0.251752	9.00E-06	1.800432	6.00E-06	6.611812	153.823563	3.292764	-0.130894	0	0.186604	-1.00E-06	-0.120288	-1.00E-06
4.367	-41.561077	682.189087	108.594528	0.191816	0	-0.251752	1.20E-05	1.800432	9.00E-06	6.771122	159.660309	3.52691	-0.131593	0	0.19337	-2.00E-06	-0.201839	-1.00E-06
4.368	-41.40321	682.189087	108.437897	0.191816	0	-0.251736	1.10E-05	1.800432	6.00E-06	6.84753	163.781464	3.52691	-0.131593	0	0.19337	-3.00E-06	-0.318664	-1.00E-06
4.369	-41.327522	682.027954	108.359734	0.191818	0	-0.250653	1.10E-05	1.764507	7.00E-06	6.771122	164.463837	3.135138	-0.131853	0	0.192027	-2.00E-06	-0.318664	-1.00E-06
4.37	-40.935383	680.48114	107.106407	0.191818	0	-0.250602	3.00E-06	1.67502	5.00E-06	6.699766	169.457458	2.351389	-0.130801	0	0.192027	-2.00E-06	-0.148738	-1.00E-06
4.371	-40.935383	678.935547	106.636093	0.191867	0	-0.250111	3.00E-06	1.67502	6.00E-06	6.466213	174.432159	0.940917	-0.132202	0	0.19388	-1.00E-06	-0.137287	-1.00E-06
4.372	-39.846191	677.553223	105.852715	0.191929	0	-0.249758	7.00E-06	1.886228	6.00E-06	6.466213	179.791046	0.862385	-0.132285	0	0.194646	-1.00E-06	-0.137287	-1.00E-06
4.373	-39.532623	677.552002	105.382935	0.191951	0	-0.249547	7.00E-06	1.886228	6.00E-06	7.014778	185.98114	0.783934	-0.132285	0	0.198127	-3.00E-06	-0.303036	-1.00E-06
4.374	-39.299793	675.665405	104.834297	0.192031	0	-0.248864	7.00E-06	1.886228	5.00E-06	7.014778	186.833221	0.548782	-0.131629	0	0.198127	-3.00E-06	-0.303036	-1.00E-06
4.375	-38.517673	675.665405	105.147858	0.192031	0	-0.248518	6.00E-06	1.808121	5.00E-06	7.014778	186.845612	-0.156354	-0.13128	0	0.194006	-3.00E-06	-0.205614	-1.00E-06
4.376	-38.515511	675.665405	104.834297	0.192109	0	-0.248495	4.00E-06	1.808121	7.00E-06	7.41197	189.610077	-1.723608	-0.13104	0	0.193993	-2.00E-06	-0.205614	-1.00E-06
4.377	-38.515511	674.826965	104.207687	0.192116	0	-0.247918	4.00E-06	1.808121	7.00E-06	7.4891	192.701721	-1.801818	-0.13104	0	0.194006	-1.00E-06	-0.205614	-1.00E-06
4.378	-37.739883	674.826965	104.207687	0.192446	0	-0.24783	4.00E-06	1.881235	5.00E-06	7.489821	194.608719	-2.663655	-0.130411	0	0.194323	-1.00E-06	-0.211265	-1.00E-06
4.379	-36.643478	674.826965	104.286148	0.192446	0	-0.247229	6.00E-06	1.881235	3.00E-06	7.725539	200.269196	-3.604104	-0.130128	0	0.198929	-1.00E-06	-0.211265	-1.00E-06
